<?xml version="1.0" standalone="no"?>
<!DOCTYPE svg PUBLIC "-//W3C//DTD SVG 20010904//EN"
 "http://www.w3.org/TR/2001/REC-SVG-20010904/DTD/svg10.dtd">
<svg version="1.0" xmlns="http://www.w3.org/2000/svg"
 width="2100.000000pt" height="2100.000000pt" viewBox="0 0 2100.000000 2100.000000"
 preserveAspectRatio="xMidYMid meet">
<metadata>
Created by potrace 1.14, written by Peter Selinger 2001-2017
</metadata>
<g transform="translate(0.000000,2100.000000) scale(0.100000,-0.100000)"
fill="#000000" stroke="none">
<path d="M12325 20274 c-168 -30 -295 -81 -435 -175 -235 -158 -391 -378 -467
-658 -22 -81 -26 -121 -29 -259 -2 -119 1 -173 11 -201 7 -22 16 -54 19 -73 6
-37 9 -52 26 -123 6 -27 13 -57 15 -65 31 -141 63 -216 275 -630 16 -30 31
-75 35 -100 3 -25 22 -92 42 -150 46 -136 47 -211 4 -400 -16 -74 -32 -146
-35 -160 -7 -39 -24 -112 -62 -270 -20 -80 -37 -149 -38 -155 -1 -5 -13 -51
-26 -102 -20 -74 -28 -93 -45 -97 -46 -12 -67 -44 -96 -143 -15 -54 -62 -217
-104 -362 -80 -279 -96 -361 -75 -386 10 -12 -3 -46 -75 -191 -126 -256 -129
-265 -130 -469 -1 -161 -3 -174 -29 -240 -48 -119 -132 -380 -195 -605 -96
-344 -90 -328 -140 -369 -144 -117 -255 -249 -317 -376 -21 -43 -30 -54 -32
-40 -11 64 -28 102 -72 160 -48 64 -50 68 -50 133 0 113 -13 125 -179 169 -95
25 -102 28 -119 62 -14 26 -34 43 -77 64 -40 19 -88 58 -155 125 -141 140
-209 177 -415 221 -200 43 -423 -8 -625 -144 -87 -59 -259 -217 -283 -261 -6
-11 -13 -21 -16 -24 -37 -30 -132 -227 -156 -325 -27 -108 -28 -121 -29 -260
0 -270 80 -407 419 -718 l50 -45 -23 -40 c-12 -22 -33 -75 -47 -117 -27 -88
-51 -123 -144 -216 -109 -108 -161 -146 -211 -154 -165 -26 -319 -125 -420
-270 -25 -37 -77 -120 -104 -170 -6 -11 -31 -53 -56 -93 -66 -108 -71 -116
-149 -252 -40 -69 -108 -197 -152 -285 -66 -132 -91 -172 -145 -230 -143 -152
-264 -384 -308 -586 -3 -15 -20 -42 -37 -60 -17 -19 -50 -54 -73 -79 -34 -37
-162 -189 -209 -250 -144 -184 -399 -572 -493 -750 -16 -30 -31 -57 -34 -60
-11 -10 -160 -321 -200 -415 -4 -11 -17 -40 -28 -65 -10 -25 -32 -74 -47 -110
-16 -36 -44 -85 -62 -110 -36 -47 -254 -280 -312 -334 -61 -56 -133 -137 -162
-183 -20 -31 -31 -38 -315 -189 -95 -51 -161 -79 -208 -89 -12 -2 -32 -6 -46
-9 -103 -23 -212 -42 -295 -51 -22 -3 -56 -7 -75 -10 -19 -3 -75 -7 -123 -10
-94 -4 -117 -14 -117 -49 0 -48 42 -81 119 -92 20 -3 43 -7 51 -9 8 -2 33 -7
55 -10 22 -3 65 -9 95 -15 57 -9 293 -6 344 5 16 3 56 13 90 21 34 8 69 17 79
19 9 2 21 6 26 9 5 3 25 8 45 11 31 5 36 4 36 -14 0 -11 -10 -29 -21 -40 -28
-26 -136 -81 -227 -116 -69 -27 -132 -73 -132 -96 0 -47 61 -82 144 -81 75 1
42 -7 342 90 138 45 254 82 257 82 18 0 3 -48 -34 -111 -29 -50 -42 -86 -46
-124 -7 -62 1 -70 73 -68 92 2 174 64 276 208 61 87 124 154 155 166 14 5 41
9 60 9 32 0 45 -9 106 -71 69 -71 137 -112 202 -123 17 -3 50 -9 75 -14 175
-33 292 52 230 167 -9 19 -81 46 -171 65 -33 7 -83 55 -105 101 -15 32 -15 42
-3 93 15 66 16 86 2 167 -11 58 -10 168 1 210 47 185 162 437 277 608 122 180
140 199 329 325 327 218 543 413 697 628 49 67 148 248 226 409 48 99 93 191
99 204 9 16 34 30 79 45 133 44 191 94 250 214 l31 64 62 -6 c119 -11 110 -6
149 -77 58 -106 161 -263 246 -373 44 -59 45 -61 42 -127 -3 -88 33 -169 117
-262 34 -37 62 -73 62 -80 3 -92 92 -432 141 -541 8 -18 9 -30 3 -34 -15 -10
-134 -159 -179 -224 -33 -47 -47 -59 -75 -64 -189 -32 -291 -117 -339 -284
-31 -107 -34 -143 -36 -435 -1 -272 -1 -281 -24 -328 -13 -27 -41 -66 -61 -87
-36 -37 -195 -159 -208 -161 -43 -5 -167 -41 -203 -59 -44 -23 -117 -102 -164
-179 -26 -43 -51 -69 -98 -99 -80 -52 -311 -234 -397 -312 -15 -14 -51 -47
-81 -73 -164 -147 -413 -405 -529 -547 -25 -30 -47 -57 -50 -60 -31 -28 -237
-316 -281 -394 -12 -21 -26 -30 -50 -32 -140 -15 -291 -65 -396 -133 -61 -39
-154 -126 -214 -198 -26 -31 -53 -49 -109 -71 -41 -17 -109 -46 -150 -65 -41
-19 -97 -45 -125 -57 -316 -142 -806 -422 -1130 -645 -133 -92 -371 -269 -433
-323 -13 -11 -42 -35 -64 -54 -228 -183 -458 -399 -688 -648 -140 -151 -214
-225 -258 -257 -20 -15 -53 -43 -73 -63 -41 -40 -44 -72 -15 -129 16 -30 16
-35 3 -43 -8 -4 -43 -31 -76 -59 l-61 -51 -33 25 c-17 14 -42 35 -55 47 -14
13 -39 23 -62 25 -56 4 -97 -34 -150 -140 -25 -47 -55 -96 -68 -108 -32 -30
-95 -28 -121 4 -19 24 -43 87 -46 124 -9 96 -56 226 -94 260 -21 18 -25 18
-49 4 -45 -25 -72 -111 -52 -164 5 -11 18 -45 30 -75 14 -34 23 -80 25 -125 1
-48 10 -90 28 -136 30 -74 33 -101 13 -118 -11 -9 -22 -8 -51 8 -48 25 -72 17
-149 -52 l-59 -53 -2 -68 -1 -68 -114 -55 c-94 -45 -126 -55 -175 -57 -34 -2
-71 -9 -84 -16 -13 -6 -109 -41 -213 -76 -155 -53 -200 -64 -254 -64 -35 0
-102 -9 -147 -19 -45 -11 -121 -24 -169 -30 -99 -11 -122 -21 -234 -102 -152
-110 -212 -197 -200 -296 6 -52 37 -126 70 -168 9 -11 44 -58 78 -105 81 -111
259 -288 323 -321 48 -25 123 -53 176 -65 46 -11 225 -13 279 -3 32 6 101 35
165 69 227 120 316 132 550 73 91 -22 246 -2 321 42 85 50 187 168 196 225 2
17 12 26 33 32 21 5 40 23 62 57 18 27 33 54 33 58 0 5 19 30 43 56 36 40 52
50 109 66 65 17 125 53 160 96 9 11 40 63 68 116 60 111 139 202 190 218 47
16 61 28 89 83 25 51 60 82 131 118 25 12 59 33 76 45 21 16 42 23 65 21 19
-2 50 3 69 11 29 11 114 64 155 96 6 4 37 27 69 51 58 42 59 43 90 28 17 -9
53 -21 82 -28 66 -15 107 -2 165 56 87 84 375 307 774 598 99 72 185 135 190
140 58 48 132 95 185 118 99 43 245 120 436 229 49 28 119 67 155 85 72 36 74
38 179 100 97 57 359 225 480 308 175 120 325 225 330 232 3 3 26 20 51 37 25
18 97 72 161 121 104 81 131 96 264 150 196 79 412 178 739 338 88 43 162 78
165 79 17 3 386 190 388 197 2 4 10 8 17 8 8 0 102 52 211 115 108 63 199 115
201 115 3 0 17 8 31 19 15 10 52 32 82 48 30 17 96 53 145 81 258 142 811 418
877 437 87 25 134 14 267 -59 64 -35 145 -76 181 -91 107 -45 115 -48 125 -51
6 -1 53 -18 106 -37 53 -19 145 -46 205 -61 197 -48 270 -72 464 -148 121 -48
351 -144 418 -174 18 -9 106 -42 195 -76 89 -33 229 -91 311 -130 199 -93 320
-146 383 -168 29 -10 67 -25 85 -33 70 -31 354 -113 424 -122 20 -2 44 -7 53
-9 9 -3 36 -8 61 -10 40 -5 177 -28 236 -40 12 -2 71 -18 131 -35 60 -16 125
-33 144 -36 19 -3 42 -8 51 -11 9 -3 25 -6 35 -8 145 -26 160 -31 222 -72 35
-24 139 -80 230 -125 163 -79 261 -139 411 -248 41 -30 106 -77 145 -105 124
-91 597 -447 715 -539 63 -50 133 -104 155 -121 22 -17 42 -34 45 -37 3 -4 42
-32 87 -62 106 -72 231 -132 308 -147 64 -13 98 -34 310 -193 125 -94 336
-258 345 -267 3 -3 34 -27 70 -53 36 -27 72 -53 81 -60 113 -87 218 -125 324
-117 l70 5 127 -100 c70 -55 130 -109 134 -120 10 -30 252 -267 311 -305 29
-18 56 -43 59 -54 25 -78 239 -336 348 -420 23 -17 41 -38 41 -46 2 -42 73
-210 142 -335 128 -230 159 -261 231 -233 57 22 228 139 292 199 109 102 247
217 355 294 61 44 123 89 138 102 16 13 58 38 95 57 250 126 537 326 792 554
234 209 616 591 624 625 11 45 -30 102 -120 164 -85 59 -213 81 -302 52 -67
-21 -205 -94 -300 -157 -115 -77 -176 -108 -248 -127 -102 -26 -393 -36 -594
-20 -63 6 -199 10 -302 10 l-187 -1 21 36 c42 69 162 236 217 301 68 80 104
103 244 159 l108 43 -3 36 c-3 33 -6 36 -38 41 -34 5 -145 -10 -206 -28 -62
-19 -165 -92 -247 -176 -57 -57 -60 -58 -91 -49 -40 12 -46 9 -117 -59 -48
-47 -65 -56 -117 -68 -50 -10 -67 -10 -93 0 -38 16 -134 78 -174 114 -35 30
-41 31 -87 12 -30 -13 -38 -13 -61 -1 -29 15 -143 101 -151 113 -3 5 10 46 28
92 35 88 35 121 -2 135 -17 6 -270 173 -288 190 -6 6 -48 44 -94 85 -45 41
-88 80 -94 85 -16 15 -217 188 -246 212 -14 12 -59 50 -101 84 -95 80 -145
121 -234 193 -38 31 -77 63 -86 70 -18 15 -175 139 -289 229 -41 32 -82 64
-90 70 -8 7 -87 66 -175 132 -87 66 -166 125 -175 132 -22 18 -246 182 -315
231 -33 24 -97 70 -143 103 -45 32 -176 122 -290 199 -114 77 -212 143 -218
147 -5 5 -18 13 -27 18 -30 18 -169 107 -327 209 -182 118 -228 138 -381 167
l-114 22 -106 106 c-121 122 -242 236 -320 302 -30 25 -85 73 -124 105 -239
203 -437 341 -695 484 -95 53 -441 228 -535 270 -27 13 -121 57 -207 99 l-157
77 24 40 c114 184 62 383 -140 542 -87 69 -121 90 -258 161 l-69 37 -65 154
c-35 85 -73 174 -84 198 -13 28 -17 51 -13 65 4 12 9 27 10 32 29 121 76 328
80 355 3 19 7 42 9 50 2 8 7 35 10 60 3 25 10 70 15 100 8 48 15 110 26 215
25 243 24 943 -1 1097 -2 13 -6 61 -10 108 -5 83 -11 143 -21 225 -14 119 -75
274 -177 447 -140 237 -190 381 -271 773 -26 125 -27 138 -31 280 -6 192 12
283 98 492 101 245 172 456 196 583 18 97 22 148 27 351 4 163 8 206 23 241
38 90 64 212 76 363 4 39 8 91 11 116 2 25 20 81 40 125 52 114 120 316 149
444 2 8 16 71 30 140 15 69 29 134 31 145 2 11 7 36 10 55 3 19 7 43 10 52 3
10 7 30 10 45 13 72 25 100 50 113 34 19 79 76 103 133 20 46 58 205 65 274 2
21 9 70 15 108 5 39 13 102 16 140 3 39 8 77 11 86 2 9 6 54 9 100 4 70 1 91
-16 126 -18 36 -20 55 -15 125 10 138 17 212 21 238 2 14 7 66 11 115 3 50 7
92 9 95 2 3 6 39 10 80 4 41 9 89 11 105 1 17 6 64 9 105 3 41 10 89 15 105 5
17 11 46 14 65 2 19 11 58 20 85 23 75 30 123 29 200 0 69 -4 80 -57 182 -13
25 -15 37 -6 53 15 29 46 39 127 41 154 4 349 51 475 115 62 31 173 102 208
133 187 165 291 316 359 519 71 211 75 466 10 686 -20 68 -94 235 -109 246 -4
3 -13 16 -20 30 -46 89 -195 243 -311 322 -123 84 -303 158 -444 183 -82 14
-299 13 -380 -1z"/>
</g>
</svg>
